<svg xmlns="http://www.w3.org/2000/svg" width="54" height="54" viewBox="0 0 54 54" fill="none">
  <path d="M1.65845 12.6729C1.78776 13.2854 1.98569 13.8809 2.24838 14.448L3.93368 14.6041C4.13971 14.9423 4.37363 15.2623 4.63295 15.5607L4.26362 17.1922C4.73098 17.6168 5.2433 17.9878 5.79123 18.2984L7.2399 17.4488C7.60979 17.601 7.99161 17.7217 8.38138 17.8095L9.05398 19.4062H10.9418L11.6144 17.8096C12.0041 17.7217 12.3859 17.601 12.7558 17.4488L14.2045 18.2984L15.7321 17.1924L15.3627 15.5608C15.6221 15.2625 15.8561 14.9425 16.0621 14.6042L17.7474 14.4482C18.0101 13.8811 18.2081 13.2855 18.3374 12.673L17.0623 11.5611V10.3764L18.3374 9.26451C18.2081 8.65205 18.0102 8.0565 17.7475 7.48941L16.0622 7.33338C15.8561 6.99515 15.6222 6.67515 15.3629 6.37679L15.7322 4.74525C15.2649 4.32071 14.7525 3.94974 14.2046 3.63909L12.7559 4.48875C12.3861 4.33645 12.0043 4.21576 11.6145 4.12795L10.9419 2.53125H9.05403L8.38149 4.1279C7.99173 4.21577 7.60992 4.33647 7.24006 4.48875L5.79134 3.63909C5.24342 3.94969 4.73112 4.32061 4.26377 4.74511L4.63314 6.37669C4.37376 6.675 4.13981 6.995 3.93382 7.33327L2.24847 7.48931C1.9857 8.0564 1.78775 8.65197 1.65845 9.26446L2.93355 10.3764V11.5611L1.65845 12.6729ZM9.99792 7.59375C10.6577 7.59375 11.3026 7.79169 11.8512 8.16254C12.3998 8.53339 12.8273 9.06049 13.0798 9.67719C13.3323 10.2939 13.3983 10.9725 13.2696 11.6272C13.1409 12.2819 12.8232 12.8832 12.3567 13.3552C11.8902 13.8272 11.2958 14.1487 10.6487 14.2789C10.0016 14.4091 9.33091 14.3423 8.72137 14.0868C8.11184 13.8314 7.59086 13.3988 7.22432 12.8438C6.85777 12.2888 6.66213 11.6363 6.66213 10.9688C6.66213 10.0736 7.01358 9.2152 7.63916 8.58226C8.26475 7.94933 9.11322 7.59375 9.99792 7.59375Z" fill="black"/>
  <path d="M10.8319 45.5625H4.16028V52.3125H10.8319V45.5625Z" fill="black"/>
  <path d="M23.3411 43.0312H16.6696V52.3125H23.3411V43.0312Z" fill="black"/>
  <path d="M35.8503 39.6562H29.1787V52.3125H35.8503V39.6562Z" fill="black"/>
  <path d="M48.3596 32.0625H41.688V52.3125H48.3596V32.0625Z" fill="black"/>
  <path d="M30.7456 20.6917C30.6928 20.593 30.621 20.5059 30.5345 20.4356C30.4481 20.3653 30.3486 20.3131 30.2419 20.2822L24.4043 18.5947L23.9458 20.2179L28.0326 21.3993L2.86865 38.1072L3.78404 39.5179L28.535 23.0841L27.1631 27.5958L28.7569 28.0918L30.8096 21.3418C30.8423 21.2346 30.8535 21.1219 30.8425 21.0102C30.8315 20.8986 30.7986 20.7903 30.7456 20.6917Z" fill="black"/>
  <path d="M37.9352 13.4452L37.2463 17.7188L40.854 15.7013L44.4616 17.7188L43.7728 13.4452L46.6916 10.4186L42.6578 9.79509L40.854 5.90625L39.0502 9.79509L35.0164 10.4186L37.9352 13.4452Z" fill="black"/>
  <path d="M42.4552 21.7841C41.9308 21.878 41.3993 21.9252 40.8667 21.9251H40.8541C40.3231 21.9253 39.7931 21.8787 39.2701 21.7857L38.9834 23.4606C39.6078 23.5518 40.2369 23.6067 40.8675 23.625C41.497 23.6249 42.1253 23.5688 42.7451 23.4573L42.4552 21.7841Z" fill="black"/>
  <path d="M45.4448 20.6711L46.2812 22.1418C47.3758 21.4959 48.3504 20.6613 49.1609 19.6759L47.884 18.582C47.1973 19.4167 46.3719 20.1236 45.4448 20.6711Z" fill="black"/>
  <path d="M47.8616 6.54207C48.5534 7.37464 49.096 8.32325 49.4647 9.34501L51.0301 8.75736C50.5942 7.5497 49.9526 6.4286 49.1345 5.44489L47.8616 6.54207Z" fill="black"/>
  <path d="M38.9409 1.69781C37.6951 1.9243 36.4987 2.37222 35.4072 3.02082L36.2469 4.48991C37.1698 3.94143 38.1814 3.56264 39.2349 3.3711L38.9409 1.69781Z" fill="black"/>
  <path d="M51.045 16.3551C51.4791 15.1351 51.699 13.8478 51.6949 12.5513L51.3268 12.5446L50.0274 12.5761C50.029 13.6663 49.8428 14.7485 49.4773 15.7741L51.045 16.3551Z" fill="black"/>
  <path d="M46.2446 2.98809C45.1494 2.34577 43.9502 1.90539 42.7028 1.6875L42.4202 3.36244C43.4747 3.54704 44.4886 3.91937 45.4147 4.46213L46.2446 2.98809Z" fill="black"/>
  <path d="M30.6708 16.375L32.2369 15.7907C31.8694 14.7663 31.6814 13.685 31.6811 12.5952L30.0132 12.5986C30.0137 13.8865 30.2362 15.1645 30.6708 16.375Z" fill="black"/>
  <path d="M33.8347 18.5953L32.5593 19.6909C33.3716 20.6752 34.3477 21.5083 35.4435 22.1526L36.2775 20.6802C35.3493 20.1346 34.5226 19.429 33.8347 18.5953Z" fill="black"/>
  <path d="M30.656 8.8188L32.2245 9.39646C32.5876 8.37228 33.1251 7.4203 33.8126 6.58362L32.5324 5.49298C31.7201 6.48245 31.0851 7.60801 30.656 8.8188Z" fill="black"/>
</svg>