<svg xmlns="http://www.w3.org/2000/svg" width="26" height="24" viewBox="0 0 26 24" fill="none">
  <g clip-path="url(#clip0_82_17)">
    <path fill-rule="evenodd" clip-rule="evenodd" d="M20.6422 16.9453C20.3359 17.764 19.1185 18.4412 18.1476 18.6393C17.4829 18.7725 16.6163 18.8779 13.696 17.7352C10.416 16.452 5.86151 11.8812 5.86151 8.83945C5.86151 7.29099 6.80698 5.48789 8.46029 5.48789C9.25581 5.48789 9.43118 5.50254 9.69296 6.09551C9.99923 6.79412 10.7465 8.51535 10.8354 8.6918C11.2027 9.41561 10.4618 9.83934 9.92424 10.4695C9.75268 10.6592 9.55826 10.8643 9.77557 11.2172C9.9916 11.5629 10.7388 12.7129 11.8368 13.6359C13.255 14.8291 14.4051 15.21 14.8168 15.3721C15.1231 15.4921 15.4891 15.4641 15.7127 15.2385C15.9961 14.9492 16.3481 14.4692 16.7065 13.9963C16.9594 13.6578 17.2809 13.6155 17.6177 13.7355C17.8451 13.81 20.7362 15.0778 20.8582 15.2807C20.9484 15.4283 20.9484 16.1267 20.6422 16.9453ZM13.2474 0H13.241C6.23512 0 0.536873 5.38242 0.536873 12C0.536873 14.624 1.43279 17.0584 2.95648 19.033L1.37306 23.492L6.25674 22.0184C8.26587 23.2739 10.6638 24 13.2474 24C20.2533 24 25.9528 18.6176 25.9528 12C25.9528 5.38242 20.2533 0 13.2474 0Z" fill="white"/>
  </g>
  <defs>
    <clipPath id="clip0_82_17">
      <rect width="25.4159" height="24" fill="white" transform="translate(0.536873)"/>
    </clipPath>
  </defs>
</svg>