<svg xmlns="http://www.w3.org/2000/svg" width="57" height="57" viewBox="0 0 57 57" fill="none">
<g clip-path="url(#clip0_60_479)">
<path d="M47.88 16.2448C41.04 5.69985 27.075 2.56485 16.245 9.11985C5.69998 15.6748 2.27998 29.9248 9.11998 40.4698L9.68998 41.3248L7.40998 49.8748L15.96 47.5948L16.815 48.1648C20.52 50.1598 24.51 51.2998 28.5 51.2998C32.775 51.2998 37.05 50.1598 40.755 47.8798C51.3 41.0398 54.435 27.0748 47.88 16.2448ZM41.895 38.1898C40.755 39.8998 39.33 41.0398 37.335 41.3248C36.195 41.3248 34.77 41.8948 29.07 39.6148C24.225 37.3348 20.235 33.6298 17.385 29.3548C15.675 27.3598 14.82 24.7948 14.535 22.2298C14.535 19.9498 15.39 17.9548 16.815 16.5298C17.385 15.9598 17.955 15.6748 18.525 15.6748H19.95C20.52 15.6748 21.09 15.6748 21.375 16.8148C21.945 18.2398 23.37 21.6598 23.37 21.9448C23.655 22.2298 23.655 22.7998 23.37 23.0848C23.655 23.6548 23.37 24.2248 23.085 24.5098C22.8 24.7948 22.515 25.3648 22.23 25.6498C21.66 25.9348 21.375 26.5048 21.66 27.0748C22.8 28.7848 24.225 30.4948 25.65 31.9198C27.36 33.3448 29.07 34.4848 31.065 35.3398C31.635 35.6248 32.205 35.6248 32.49 35.0548C32.775 34.4848 34.2 33.0598 34.77 32.4898C35.34 31.9198 35.625 31.9198 36.195 32.2048L40.755 34.4848C41.325 34.7698 41.895 35.0548 42.18 35.3398C42.465 36.1948 42.465 37.3348 41.895 38.1898Z" fill="white"/>
</g>
<defs>
<clipPath id="clip0_60_479">
<rect width="57" height="57" fill="white"/>
</clipPath>
</defs>
</svg>