<svg xmlns="http://www.w3.org/2000/svg" width="57" height="57" viewBox="0 0 57 57" fill="none">
<path d="M55.2116 28.6622C55.2098 13.9116 43.2523 1.9541 28.5 1.9541C13.7476 1.9541 1.78833 13.9134 1.78833 28.6657C1.78833 41.9449 11.4783 52.9602 24.1715 55.0282L24.3247 55.0496V36.3857H17.5417V28.6622H24.3247V22.7805C24.2909 22.483 24.273 22.1374 24.273 21.7883C24.273 16.5817 28.4946 12.3602 33.7012 12.3602C33.9524 12.3602 34.2017 12.3709 34.4493 12.3887L34.4173 12.3869C36.553 12.4172 38.6192 12.606 40.6356 12.9426L40.3969 12.9088V19.4816H37.0268C36.8736 19.4602 36.6973 19.4478 36.5191 19.4478C34.387 19.4478 32.6574 21.1756 32.6574 23.3095C32.6574 23.4306 32.6627 23.55 32.6734 23.6693L32.6716 23.6533V28.6622H40.0799L38.8953 36.3857H32.6716V55.0496C45.5198 52.9584 55.2098 41.9414 55.2116 28.6622Z" fill="white"/>
</svg>