<svg xmlns="http://www.w3.org/2000/svg" width="57" height="57" viewBox="0 0 57 57" fill="none">
<g clip-path="url(#clip0_60_484)">
<path d="M28.5 0C12.7582 0 0 12.7582 0 28.5C0 44.2418 12.7582 57 28.5 57C44.2418 57 57 44.2418 57 28.5C57 12.7582 44.2418 0 28.5 0ZM20.5289 40.4232H14.9736V22.6441H20.5289V40.4232ZM17.601 20.4176H17.5564C15.5414 20.4176 14.2389 19.0594 14.2389 17.3338C14.2389 15.5748 15.5859 14.25 17.6344 14.25C19.6828 14.25 20.9408 15.5748 20.9854 17.3338C20.9965 19.0482 19.6939 20.4176 17.601 20.4176ZM42.75 40.4232H36.4488V31.2275C36.4488 28.8229 35.4691 27.1752 33.2982 27.1752C31.6395 27.1752 30.7154 28.2885 30.2924 29.3572C30.1365 29.7357 30.1588 30.2701 30.1588 30.8156V40.4232H23.9133C23.9133 40.4232 23.9912 24.1248 23.9133 22.6441H30.1588V25.4385C30.5262 24.2139 32.5189 22.4771 35.7029 22.4771C39.6551 22.4771 42.75 25.0377 42.75 30.5373V40.4232Z" fill="white"/>
</g>
<defs>
<clipPath id="clip0_60_484">
<rect width="57" height="57" fill="white"/>
</clipPath>
</defs>
</svg>