<svg xmlns="http://www.w3.org/2000/svg" width="27" height="24" viewBox="0 0 27 24" fill="none">
  <path d="M18.2468 12.9062L17.7645 13.359C17.7645 13.359 16.618 14.4355 13.4887 11.4972C10.3593 8.55901 11.5058 7.48257 11.5058 7.48257L11.8095 7.19738C12.5578 6.49484 12.6283 5.36691 11.9755 4.54348L10.6401 2.85908C9.83212 1.83992 8.27082 1.70529 7.34472 2.57483L5.68252 4.13552C5.22332 4.56668 4.91559 5.12559 4.95291 5.74561C5.04838 7.33182 5.80839 10.7447 10.0493 14.7266C14.5466 18.9492 18.7664 19.117 20.492 18.9651C21.0378 18.9171 21.5125 18.6546 21.895 18.2954L23.3994 16.883C24.4149 15.9295 24.1285 14.2949 22.8292 13.628L20.806 12.5894C19.9529 12.1515 18.9136 12.2801 18.2468 12.9062Z" fill="white"/>
</svg>