<svg xmlns="http://www.w3.org/2000/svg" width="57" height="55" viewBox="0 0 57 55" fill="none">
<g clip-path="url(#clip0_60_717)">
<path d="M56.3484 42.9688C56.3484 40.6897 55.438 38.5034 53.8144 36.8913C52.1909 35.2791 49.9893 34.375 47.6942 34.375C40.5874 34.375 30.5693 34.375 23.4625 34.375C21.1674 34.375 18.9658 35.2791 17.3423 36.8913C15.7188 38.5034 14.8083 40.6897 14.8083 42.9688C14.8083 48.6303 14.8083 51.5625 14.8083 51.5625H56.3484C56.3484 51.5625 56.3484 48.6303 56.3484 42.9688ZM11.3467 44.6875H0.96167C0.96167 44.6875 0.96167 41.7553 0.96167 36.0938C0.96167 33.8147 1.87209 31.6284 3.49561 30.0163C5.11914 28.4041 7.32076 27.5 9.61584 27.5H23.5871C24.3418 28.7925 25.3007 29.9544 26.4223 30.9375H23.4625C16.7711 30.9375 11.3467 36.3241 11.3467 42.9688V44.6875ZM35.5784 10.3125C41.3109 10.3125 45.9634 14.9325 45.9634 20.625C45.9634 26.3175 41.3109 30.9375 35.5784 30.9375C29.8458 30.9375 25.1934 26.3175 25.1934 20.625C25.1934 14.9325 29.8458 10.3125 35.5784 10.3125ZM22.1679 24.0522C22.0225 24.0591 21.8771 24.0625 21.7317 24.0625C15.9992 24.0625 11.3467 19.4425 11.3467 13.75C11.3467 8.0575 15.9992 3.4375 21.7317 3.4375C25.2834 3.4375 28.4196 5.21125 30.2924 7.91313C25.2695 9.97906 21.7317 14.8947 21.7317 20.625C21.7317 21.8075 21.884 22.9591 22.1679 24.0522Z" fill="#424143"/>
</g>
<defs>
<clipPath id="clip0_60_717">
<rect width="55.3867" height="55" fill="white" transform="translate(0.96167)"/>
</clipPath>
</defs>
</svg>